<svg id="Layer_1" data-name="Layer 1" xmlns="http://www.w3.org/2000/svg" viewBox="0 0 380.63 105.42"><defs><style>.cls-1{opacity:0.58;}.cls-2{fill:#fff;}</style></defs><title>BZERO</title><g class="cls-1"><rect x="65.45" y="7.07" width="241.72" height="90.13"/><rect x="72.35" y="0.4" width="226.45" height="105.02"/></g><rect x="275.89" y="16.95" width="104.74" height="7.14"/><rect x="236.78" y="47.07" width="104.74" height="7.14"/><rect x="275.45" y="76.19" width="104.74" height="7.14"/><path d="M56.13,71.4H48.46v8.11H0V23.39H48.12v7.77h8V47.28H48.35v8h7.78ZM40,47.28V31.5H16.12V47.28ZM40,71.4v-16H16.12v16Z"/><g class="cls-1"><path d="M61.24,71.4H53.58v8.11H5.12V23.39H53.24v7.77h8V47.28H53.47v8h7.77ZM45.13,47.28V31.5H21.23V47.28Zm0,24.12v-16H21.23v16Z"/></g><rect x="66.45" y="6.3" width="234.83" height="85.05"/><rect x="73.15" width="220" height="99.1"/><path class="cls-2" d="M129.46,39h-6.55v6.94h-6.84v7h-6.94v6.94h-7v6.65h27.37V73.5h-48V59.91H88V53H95v-7h6.85V39h7V32.45H81.47V25.51h48Z"/><path class="cls-2" d="M183.32,73.11H134.76V24.65h48.56v6.74H148.73V45.17h20.72V52.3H148.73V66.18h34.59Z"/><path class="cls-2" d="M235.45,52.88H221.67v6.65h6.94v7h6.84V73.5H215V67h-6.84V59.82h-6.94V73.5H187.46v-48h41.15v6.65h6.84Zm-13.78-6.94V32.45H201.24V52.88H215V45.94Z"/><path class="cls-2" d="M288.45,66.56h-6.56V73.5H247.4V67h-6.94V32.45H247V25.51H281.6v6.55h6.85Zm-13.78,0V32.45H254.24V66.56Z"/></svg>