<svg id="Layer_1" data-name="Layer 1" xmlns="http://www.w3.org/2000/svg" viewBox="0 0 284.62 76.62"><defs><style>.cls-1{fill:#ed2024;}.cls-2{fill:#fff;}</style></defs><title>bzero2</title><path class="cls-1" d="M48,55.12H41.45v6.94H0v-48H41.17v6.66H48V34.49H41.36v6.85H48ZM34.22,34.49V21H13.79V34.49Zm0,20.63V41.43H13.79V55.12Z"/><path class="cls-2" d="M111.34,27.67h-6.55v6.94H98v7H91v6.94H84v6.65h27.36v6.94h-48V48.58h6.55V41.64h6.94v-7h6.84V27.67h7V21.12H63.36V14.18h48Z"/><path class="cls-2" d="M165.21,61.78H116.64V13.31h48.57v6.75h-34.6V33.84h20.72V41H130.61V54.84h34.6Z"/><path class="cls-2" d="M217.33,41.54H203.56v6.65h6.93v7h6.84v6.94H196.91V55.71h-6.85V48.48h-6.93V62.17H169.35v-48h41.14v6.65h6.84Zm-13.77-6.93V21.12H183.13V41.54h13.78V34.61Z"/><path class="cls-2" d="M270.33,55.23h-6.55v6.94h-34.5V55.61h-6.94V21.12h6.55V14.18h34.6v6.55h6.84Zm-13.78,0V21.12H236.12V55.23Z"/><rect class="cls-1" x="42.8" y="62.98" width="7.04" height="7.04"/><rect class="cls-1" x="49.84" y="70.07" width="226.4" height="6.55"/><rect class="cls-1" x="269.6" y="62.98" width="15.02" height="7.04"/><rect class="cls-1" x="277.62" y="7.09" width="6.99" height="58.42"/><rect class="cls-1" x="271.46" y="0.15" width="6.79" height="6.79"/><rect class="cls-1" x="42.77" y="5" width="7.04" height="7.09"/><rect class="cls-1" x="54.34" width="7.04" height="7.09"/><rect class="cls-1" x="61.38" width="149.41" height="7.09"/><rect class="cls-1" x="217.33" width="46.39" height="6.94"/></svg>